<svg preserveAspectRatio="none" overflow="visible" style="display: block;" width="32" height="32" viewBox="0 0 32 32" fill="none" xmlns="http://www.w3.org/2000/svg">
<g id="icon-phone">
<path id="Vector" d="M26.0047 29H25.8347C6.18474 27.87 3.39474 11.29 3.00474 6.23C2.97331 5.83658 3.01983 5.44082 3.14161 5.06541C3.2634 4.69 3.45806 4.3423 3.71445 4.04225C3.97085 3.7422 4.28392 3.49569 4.63575 3.31684C4.98757 3.13799 5.37123 3.03032 5.76474 3H11.2747C11.6753 2.99961 12.0667 3.11951 12.3984 3.34416C12.73 3.56881 12.9865 3.88787 13.1347 4.26L14.6547 8C14.8011 8.36355 14.8374 8.76208 14.7592 9.14609C14.681 9.5301 14.4916 9.88267 14.2147 10.16L12.0847 12.31C12.4175 14.2007 13.3229 15.9437 14.6786 17.303C16.0343 18.6622 17.7749 19.5723 19.6647 19.91L21.8347 17.76C22.1162 17.4862 22.4721 17.3013 22.858 17.2283C23.2439 17.1554 23.6427 17.1977 24.0047 17.35L27.7747 18.86C28.1413 19.0129 28.454 19.2714 28.673 19.6027C28.8921 19.9339 29.0075 20.3229 29.0047 20.72V26C29.0047 26.7956 28.6887 27.5587 28.1261 28.1213C27.5634 28.6839 26.8004 29 26.0047 29ZM6.00474 5C5.73952 5 5.48517 5.10536 5.29763 5.29289C5.11009 5.48043 5.00474 5.73478 5.00474 6V6.08C5.46474 12 8.41474 26 25.9447 27C26.0761 27.0081 26.2078 26.9902 26.3322 26.9473C26.4567 26.9045 26.5714 26.8374 26.6699 26.7501C26.7684 26.6628 26.8487 26.5568 26.9061 26.4384C26.9636 26.32 26.9971 26.1914 27.0047 26.06V20.72L23.2347 19.21L20.3647 22.06L19.8847 22C11.1847 20.91 10.0047 12.21 10.0047 12.12L9.94474 11.64L12.7847 8.77L11.2847 5H6.00474Z" fill="white"/>
</g>
</svg>
