<svg width="32" height="32" viewBox="0 0 32 32" fill="none" xmlns="http://www.w3.org/2000/svg">
<g id="Home mobile friendly">
<g id="Novedades - Categor&#195;&#173;as">
<rect x="-352.5" y="-609.5" width="1040" height="2219" rx="4.5" stroke="#8A38F5" stroke-dasharray="10 5"/>
<g id="Categor&#195;&#173;a=Alimentaci&#195;&#179;n, Tipo=Categoria de filtros">
<rect x="-17" y="-17" width="171" height="120" rx="8" fill="#ECF1E0"/>
<g id="Frame 211">
<rect width="32" height="32" rx="8" fill="#9EC938"/>
<g id="icon/nutricional" clip-path="url(#clip0_43_224)">
<path id="Vector" d="M12.7992 4.80002H11.1992V12.8H12.7992V4.80002Z" fill="#333333"/>
<path id="Vector_2" d="M15.1992 12C15.1992 12.8487 14.8621 13.6626 14.262 14.2628C13.6618 14.8629 12.8479 15.2 11.9992 15.2C11.1505 15.2 10.3366 14.8629 9.73648 14.2628C9.13636 13.6626 8.79922 12.8487 8.79922 12V4.80002H7.19922V12C7.20037 13.1335 7.60262 14.23 8.33473 15.0954C9.06684 15.9608 10.0816 16.5391 11.1992 16.728V27.2H12.7992V16.728C13.9169 16.5391 14.9316 15.9608 15.6637 15.0954C16.3958 14.23 16.7981 13.1335 16.7992 12V4.80002H15.1992V12Z" fill="#333333"/>
<path id="Vector_3" d="M21.6008 4.80002H20.8008V27.2H22.4008V19.2H24.8008C25.2251 19.2 25.6321 19.0315 25.9322 18.7314C26.2322 18.4313 26.4008 18.0244 26.4008 17.6V9.60002C26.4255 8.96305 26.3183 8.32783 26.0858 7.73427C25.8534 7.14071 25.5007 6.60163 25.0499 6.15088C24.5992 5.70013 24.0601 5.34744 23.4665 5.11498C22.873 4.88251 22.2378 4.77528 21.6008 4.80002ZM24.8008 17.6H22.4008V6.47202C24.7048 6.92002 24.8008 9.30402 24.8008 9.60002V17.6Z" fill="#333333"/>
</g>
</g>
</g>
</g>
</g>
<defs>
<clipPath id="clip0_43_224">
<rect width="25.6" height="25.6" fill="white" transform="translate(4 3.20001)"/>
</clipPath>
</defs>
</svg>
